HIERARCHY
ROOT Spine
{
    OFFSET 0.0 0.0 -0.0
    CHANNELS 6 Xposition Yposition Zposition Zrotation Xrotation Yrotation
    JOINT ShoulderCenter
    {
        OFFSET 0.0 33.018985748291016 0.0
        CHANNELS 3 Zrotation Xrotation Yrotation
        JOINT LeftShoulder
        {
            OFFSET 18.641685485839844 0.0 0.0
            CHANNELS 3 Zrotation Xrotation Yrotation
            JOINT LeftElbow
            {
                OFFSET 28.85647201538086 0.0 0.0
                CHANNELS 3 Zrotation Xrotation Yrotation
                JOINT LeftHand
                {
                    OFFSET 32.28925704956055 0.0 0.0
                    CHANNELS 3 Zrotation Xrotation Yrotation
                    End Site
                    {
                        OFFSET 12.915704727172852 0.0 0.0
                    }
                }
            }
        }
        JOINT RightShoulder
        {
            OFFSET -18.641685485839844 0.0 0.0
            CHANNELS 3 Zrotation Xrotation Yrotation
            JOINT RightElbow
            {
                OFFSET -28.85647201538086 0.0 0.0
                CHANNELS 3 Zrotation Xrotation Yrotation
                JOINT RightHand
                {
                    OFFSET -32.28925704956055 0.0 0.0
                    CHANNELS 3 Zrotation Xrotation Yrotation
                    End Site
                    {
                        OFFSET -12.915704727172852 0.0 0.0
                    }
                }
            }
        }
        End Site
        {
            OFFSET 0.0 13.207594871520996 0.0
        }
    }
    JOINT LeftHip
    {
        OFFSET 15.558140258578364 -15.558140258578364 0.0
        CHANNELS 3 Zrotation Xrotation Yrotation
        JOINT LeftKnee
        {
            OFFSET 0.0 -41.181251525878906 0.0
            CHANNELS 3 Zrotation Xrotation Yrotation
            JOINT LeftFoot
            {
                OFFSET 0.0 -42.514793395996094 0.0
                CHANNELS 3 Zrotation Xrotation Yrotation
                End Site
                {
                    OFFSET 0.0 0.0 17.005916595458984
                }
            }
        }
    }
    JOINT RightHip
    {
        OFFSET -15.558140258578364 -15.558140258578364 0.0
        CHANNELS 3 Zrotation Xrotation Yrotation
        JOINT RightKnee
        {
            OFFSET 0.0 -41.181251525878906 0.0
            CHANNELS 3 Zrotation Xrotation Yrotation
            JOINT RightFoot
            {
                OFFSET 0.0 -42.514793395996094 0.0
                CHANNELS 3 Zrotation Xrotation Yrotation
                End Site
                {
                    OFFSET 0.0 0.0 17.005916595458984
                }
            }
        }
    }
}
MOTION
Frames: 13
Frame Time: 0.03333333333333333
-62.900001525878906 77.30000305175781 -63.099998474121094 -67.58182715744186 -4.535405474914646 86.53328229775222 -1.4153111333963738e-06 1.5701992477978014e-06 -0.6119332582571363 110.34073861484615 -17.73957079896595 -157.13854802971204 -1.175795405576829e-07 5.931677391240553e-06 71.74879292140947 4.7708320221952736e-15 -6.361109362927032e-15 -3.1805546814635156e-15 -105.8433423818485 -14.183214216434282 156.8485361704996 5.713427014313848e-07 7.498985312592661e-07 -69.95032020308095 -6.3611093629270335e-15 -3.531125038440127e-31 6.3611093629270335e-15 10.492209660799002 -66.89484310998809 70.12532130016757 19.635911549447325 14.32268633315351 -48.133300718368986 1.5902773407317584e-15 3.1805546814635168e-15 -3.975693351829396e-16 17.076337198508703 -64.0713032323776 -27.439242646851604 -16.980041951788305 16.14195329113746 35.65689204533682 1.5902773407317588e-15 -1.5902773407317588e-15 -8.746525374024672e-15
-63.099998474121094 77.20000457763672 -63.0 -67.25940153550292 -5.217397801901916 87.61248538988826 -1.5800383195119892e-06 -2.3107297502126273e-07 -1.3109158698533343 110.03427760880732 -17.459233939587424 -157.24383097233547 -4.06274973577768e-07 -1.5794966656480195e-06 70.58751077941496 3.1805546814635176e-15 1.3241718894150476e-31 4.770832022195277e-15 -105.44009989609653 -14.099605328274048 157.73431716830675 -3.145325655260405e-07 3.8712868029674595e-07 -70.59794914337358 0.0 0.0 6.3611093629270335e-15 8.54826871460919 -66.43556147199568 66.02356418391939 18.453173456857915 15.339298966396061 -47.60376340118494 -1.5902773407317582e-15 3.1805546814635164e-15 -1.1927080055488186e-15 16.014637624246546 -63.84082415034816 -29.282664634332928 -16.94804678102935 16.077665856515132 36.408321610238374 1.5902773407317584e-15 1.5902773407317582e-15 -7.553817368475852e-15
-63.20000457763672 77.0 -63.0 -66.87013476162596 -5.565484435569676 87.05481462293295 -2.19868233741602e-06 2.4675923814236576e-06 0.33650042065550584 110.86884963313325 -18.75934334371273 -156.79842266794353 -2.2935907657898826e-06 -2.997008388593254e-06 69.82404506591725 -1.5902773407317584e-15 -1.5902773407317584e-15 -3.1805546814635168e-15 -104.61185268553109 -13.342782544074687 157.6684718170335 -9.873388519366495e-08 5.442315111560061e-06 -69.45249194649143 6.3611093629270335e-15 1.7655625192200634e-31 3.1805546814635168e-15 11.912514785295665 -66.2887161449515 71.17665992850793 19.134284980946436 12.922284285703899 -43.850770492274556 1.5902773407317582e-15 -1.5902773407317582e-15 1.9878466759146976e-15 16.722350527100406 -63.47225946709367 -28.569346967724684 -16.640943105139833 16.445596652359047 36.243849931154834 3.1805546814635168e-15 1.1034765745125397e-31 3.975693351829396e-15
-63.099998474121094 77.20000457763672 -63.0 -66.48055977476416 -5.91319683136214 86.79418425834653 -7.122321406903602e-07 -8.727984865440139e-07 1.1941815553426791 112.04582851907716 -19.90899286791874 -156.80896024377802 3.550225729723037e-06 1.1782441714273144e-06 69.58096045794095 -3.1805546814635168e-15 6.3611093629270335e-15 -3.1805546814635168e-15 -104.33394268019299 -13.13081228487749 158.0495658473734 -8.644452886528884e-07 6.5355980789397676e-06 -69.16614043102794 0.0 6.3611093629270335e-15 0.0 9.788107778258942 -65.24343934173321 66.9076666031395 18.44408548241788 13.500324525835358 -43.81704131011773 0.0 0.0 4.373262687012335e-15 17.026628384755885 -62.89015062497864 -29.127527714409894 -16.615853158399936 15.804342337625828 35.08223819362864 -3.180554681463516e-15 1.1034765745125397e-32 -3.975693351829395e-16
-63.099998474121094 77.5 -63.099998474121094 -66.09069191555977 -6.260458613638479 87.50979277096775 2.944410887806148e-06 -9.142066282325572e-07 -0.7225674283148972 112.79350965088747 -18.915576312646042 -157.61451223803863 -4.198862827796377e-06 2.508188412262023e-06 69.49469970523054 -1.5902773407317588e-15 -6.361109362927035e-15 1.5902773407317588e-15 -103.89060481813424 -14.443766180932673 157.70362968226897 2.6502918635929147e-06 -3.3354488658282737e-06 -68.7783027141359 1.7655625192200634e-31 -6.3611093629270335e-15 3.1805546814635168e-15 7.867357606586206 -64.82577734005646 63.66143057206333 17.97337937707246 13.521157194257304 -42.328327400611975 1.5902773407317582e-15 -3.1805546814635164e-15 -2.385416011097637e-15 15.773493919711914 -62.42450577412821 -31.13008582382939 -16.64691794527691 15.037852204449418 34.74181460964344 -9.931289170612858e-32 -3.1805546814635164e-15 -3.578124016646456e-15
-63.20000457763672 77.60000610351562 -63.0 -63.98511143150109 -8.030832989670625 87.3972173418728 1.5078924186576538e-06 3.762750503630956e-07 1.9343842594074678 114.6545726458599 -21.97008803152771 -158.5990018854395 -2.015012864143741e-06 4.828247586822327e-06 69.47835731383765 4.770832022195275e-15 1.590277340731758e-15 -7.951386703658792e-15 -101.85088601123823 -12.62683445441646 161.2665996449363 -6.823948500399027e-06 3.945252120044353e-06 -69.88889123461817 -6.361109362927033e-15 1.7655625192200634e-31 -3.1805546814635164e-15 9.330235442950306 -62.77588808887329 62.59903021955254 17.83313383428873 13.838082092586266 -41.58599737340745 -1.590277340731758e-15 1.5902773407317584e-15 -8.74652537402467e-15 17.03306896891774 -60.375505652894645 -32.68521679554568 -16.30261994073658 14.749284941759575 33.28630480467209 3.1805546814635176e-15 1.5902773407317588e-15 -4.770832022195277e-15
-63.30000305175781 77.60000610351562 -62.69999694824219 -63.19755191814167 -8.432478182266024 87.97851891908921 1.4314504462821657e-06 -3.878179148846329e-07 6.812638950407006 115.58942721406318 -27.01407248827508 -156.72949246184456 8.328616278902446e-07 2.5610793053423234e-06 68.9705850792488 1.5902773407317584e-15 1.5902773407317584e-15 -1.5902773407317584e-15 -100.46936351525825 -7.611656531289965 163.2816473303161 1.0695269620765515e-06 2.7042781937359537e-07 -70.27165145445873 -1.7655625192200634e-31 -6.3611093629270335e-15 -3.1805546814635168e-15 8.571736447664017 -61.921731983813274 59.47860187093734 16.633699263570737 14.459066333940237 -39.16225757253922 -1.5902773407317584e-15 9.931289170612858e-32 -7.156248033292914e-15 15.796807263601517 -60.189143559887526 -36.49750677875702 -17.463349817398406 14.487015523138906 35.485605411275046 3.1805546814635168e-15 3.1805546814635168e-15 -3.975693351829396e-15
-63.400001525878906 77.70000457763672 -62.69999694824219 -62.801878239404495 -8.778005857811133 88.0135303748777 -8.610369239874281e-07 9.451633662275038e-07 4.767040241582338 115.57998459131717 -25.659377559641968 -158.8277689910276 -4.0716633630436356e-07 -2.8170372058411576e-07 69.98100653735511 1.1034765745125397e-31 1.5902773407317584e-15 -7.951386703658792e-15 -99.55797716488442 -10.058452027593185 163.3159417814989 -4.069295555998314e-06 -1.3162977206926425e-06 -70.71684298793825 -6.361109362927033e-15 -6.361109362927033e-15 -3.531125038440127e-31 9.428510512524202 -61.51350301980475 59.66840880711715 16.017927035816573 14.674379475880704 -38.629675893719266 1.5902773407317584e-15 -1.5902773407317584e-15 3.578124016646457e-15 16.318232360637378 -60.04796229948112 -36.81694764557641 -18.243869530561295 13.977124428838057 35.07822609561399 3.1805546814635168e-15 -2.0966054915738252e-31 -7.553817368475852e-15
-63.599998474121094 77.60000610351562 -63.0 -63.03982714457991 -8.420879923408956 87.64415799070602 2.647916482900911e-06 1.1080561263261787e-06 2.1696026046877614 115.72213640165683 -22.74840478390439 -160.5352891125383 -8.496205450528468e-06 8.464077411156623e-06 70.87302105462528 -6.3611093629270335e-15 -3.531125038440127e-31 6.3611093629270335e-15 -100.47087826792702 -12.720751642084636 162.4828890155254 2.167348914572707e-06 1.5400771085345535e-07 -71.2551697455721 0.0 0.0 3.180554681463516e-15 11.03077618205518 -62.24138891920805 64.32574395935933 17.530443437188882 11.692106219044643 -35.79971175083184 7.951386703658792e-16 2.2069531490250793e-32 3.1805546814635168e-15 17.046456607558888 -60.57645302848723 -35.07152016553558 -18.535025949771338 14.603987619001648 35.41005272627572 -3.1805546814635164e-15 -3.089734408635111e-31 1.1131941385122307e-14
-63.70000076293945 77.60000610351562 -62.69999694824219 -63.195896208830256 -9.186182060545764 87.7944671523449 -1.805912139591736e-06 -1.6002723163520609e-06 5.375517986274424 117.35114749261818 -25.260359695419304 -158.14713699644287 -4.482253723380609e-06 1.900848042823738e-06 70.32631919134231 2.648343778830095e-31 6.361109362927033e-15 -4.770832022195274e-15 -99.4422570435316 -9.297044333686507 163.31895468906106 -7.232886212983985e-07 -5.656965667057362e-06 -71.86636906209326 0.0 0.0 6.361109362927033e-15 10.88397647185498 -62.12730248505858 60.87831120872898 16.19687413080889 12.559843768993554 -34.405155807697525 -4.4139062980501586e-32 1.5902773407317584e-15 3.1805546814635168e-15 17.66982600574477 -61.016432612361996 -37.280519129811296 -19.334972697380383 14.225306930147132 36.5994158121764 -7.724336021587778e-32 -1.590277340731758e-15 -5.565970692561153e-15
-63.900001525878906 77.80000305175781 -62.69999694824219 -62.720779274591 -8.801798969572443 87.49195713192664 -1.2227461588688778e-06 2.1797815911432033e-06 2.699682261214128 117.45846270493526 -23.525089766270682 -160.70407367358365 1.6763617380705918e-06 4.375098606831003e-06 71.64033320502232 -6.3611093629270335e-15 2.648343778830095e-31 -4.770832022195275e-15 -99.60084862118751 -12.263177147153494 163.13017273429367 1.4730138875345456e-07 1.4879489804291708e-06 -72.13419865636315 -6.3611093629270335e-15 0.0 0.0 11.027803869714068 -61.75248365867072 61.985276184155815 16.242452575140774 13.083832730542486 -35.78026895886693 1.5902773407317584e-15 -1.5902773407317584e-15 1.987846675914698e-15 17.705376568777343 -60.60524831011521 -36.61208841096119 -19.198783583310174 14.000519520839374 35.56956588865839 6.3611093629270335e-15 -1.5902773407317584e-15 8.827812596100317e-32
-63.80000305175781 78.30000305175781 -62.69999694824219 -61.77123434158195 -7.919913214926209 88.58147598627264 8.449865759099809e-07 2.0128871909978664e-06 2.1660612761450633 115.58714972788596 -23.540426779388238 -161.03561225055282 7.591228603910217e-07 -4.636285551431683e-07 70.7368389498724 0.0 0.0 1.1131941385122309e-14 -99.34309886838314 -11.456823216758314 163.98456026425765 -2.098095141357366e-06 -1.0350590618609257e-06 -71.52562408565022 0.0 6.3611093629270335e-15 0.0 8.121895603104917 -61.156277226783764 58.91359890044059 15.551809060225137 14.569824356608613 -36.296241401713004 1.5902773407317588e-15 1.5902773407317588e-15 7.951386703658794e-16 14.114445221190431 -59.621448683256865 -40.25937495810779 -18.628699193389803 13.065097673547932 34.330143726992354 -3.1805546814635168e-15 -1.7655625192200634e-31 6.3611093629270335e-15
-63.900001525878906 78.19999694824219 -62.80000305175781 -61.68721220828085 -7.068353317126212 87.60507916655146 -2.1047136706318237e-06 -6.835198398249089e-07 2.0665179493529298 116.05551319348713 -23.65943349997208 -162.19778378588717 1.9482317141742933e-07 5.859710528875226e-06 72.19160141237604 -1.5902773407317588e-15 4.4139062980501586e-32 -3.1805546814635176e-15 -100.40460582258672 -12.646660940264498 163.45826529875004 1.1917426470974405e-06 1.9455484412849865e-06 -72.0377444165859 6.3611093629270335e-15 5.29668755766019e-31 9.54166404439055e-15 9.930102999835672 -61.21385248850849 63.83800626814425 16.12299755854388 14.805873064322824 -38.071082295918984 -1.5902773407317584e-15 -1.5902773407317584e-15 -1.987846675914698e-15 15.309991282908308 -59.01256918142881 -36.66898526439745 -18.151300713046098 12.993828861597969 32.544325397470054 3.1805546814635164e-15 -1.1034765745125397e-32 -3.9756933518293955e-16
